<svg width="45" height="45" viewBox="0 0 45 45" fill="none" xmlns="http://www.w3.org/2000/svg">
<path d="M23.3966 3C18.254 3.00593 13.3238 5.11497 9.68747 8.86441C6.05116 12.6139 4.00575 17.6975 4 23C4.00862 28.3016 6.05494 33.3835 9.69064 37.1323C13.3263 40.8811 18.2549 42.9911 23.3966 43C28.5408 43 33.4744 40.8929 37.112 37.1421C40.7495 33.3914 42.7931 28.3043 42.7931 23C42.7931 17.6957 40.7495 12.6086 37.112 8.85786C33.4744 5.10714 28.5408 3 23.3966 3ZM35.1943 34.5408C34.105 32.2752 32.4233 30.3686 30.3389 29.0361C28.2546 27.7036 25.8506 26.9982 23.3981 26.9995C20.9457 27.0009 18.5424 27.7089 16.4594 29.0436C14.3765 30.3784 12.6967 32.2868 11.6097 34.5536C8.70935 31.452 7.09327 27.3085 7.10345 23C7.10345 18.5444 8.82004 14.2712 11.8756 11.1206C14.9311 7.97 19.0754 6.2 23.3966 6.2C27.7178 6.2 31.862 7.97 34.9175 11.1206C37.9731 14.2712 39.6897 18.5444 39.6897 23C39.6994 27.3025 38.0875 31.4405 35.1943 34.5408ZM23.3966 11C22.0155 11 20.6654 11.4223 19.5171 12.2134C18.3688 13.0046 17.4738 14.1291 16.9453 15.4447C16.4168 16.7603 16.2785 18.208 16.548 19.6047C16.8174 21.0013 17.4824 22.2842 18.459 23.2912C19.4356 24.2981 20.6798 24.9838 22.0343 25.2617C23.3888 25.5395 24.7928 25.3969 26.0687 24.8519C27.3447 24.307 28.4352 23.3841 29.2025 22.2001C29.9698 21.0161 30.3793 19.624 30.3793 18.2C30.3793 17.2545 30.1987 16.3182 29.8478 15.4447C29.4969 14.5711 28.9825 13.7774 28.3341 13.1088C27.6857 12.4403 26.9159 11.9099 26.0687 11.5481C25.2215 11.1862 24.3135 11 23.3966 11Z" fill="black"/>
</svg>
